<svg width="58" height="48" viewBox="0 0 58 48" fill="none" xmlns="http://www.w3.org/2000/svg">
<g filter="url(#filter0_d_4_5)">
<path d="M22.7538 39H4.15385V38.7231L10.1077 36.6923V2.49231L4.15385 0.507694V0.230768H20.2154C27.9692 0.230768 32.1692 3.73846 32.1692 9.23077C32.1692 14.4462 26.9077 18.5077 22.2462 18.9231V19.0615C29.2615 20.0769 34.6154 23.5846 34.6154 28.8923C34.6154 34.9385 29.6308 39 22.7538 39ZM17.3538 37.9846H22.2923C27.9231 37.9846 31.9846 34.2923 31.9846 28.8462C31.9846 24 27.9692 20.7231 20.2154 19.3846C18.2769 19.0615 16.0615 17.2615 14.8154 15.1385L15.3231 14.7692C16.5692 16.8 18.6462 18.3231 20.2154 18.3231C25.3846 18.3231 29.7231 14.4 29.7231 9.23077C29.7231 4.47692 26.8154 1.24615 20.1692 1.24615H17.3538C13.7538 1.24615 12.5538 1.61539 12.5538 2.76923V36.0923C12.5538 37.4769 13.8 37.9846 17.3538 37.9846ZM44.8037 39.6C40.3267 39.6 37.1421 37.3385 37.1421 34.1077C37.1421 31.8 38.9421 30 41.3421 30V30.5538C39.2191 30.5538 37.7883 32.0769 37.7883 34.1077C37.7883 36.6923 40.6498 38.6308 44.0191 38.6308C48.0344 38.6308 51.0806 36.1846 51.0806 32.2154C51.0806 28.7538 48.8191 27.0462 44.4344 27.0462C43.2806 27.0462 41.8498 27.2308 40.0498 27.6462L39.9575 27C47.1114 25.7077 49.4652 23.6769 49.4652 20.2154C49.4652 17.5846 47.5267 16.2923 44.6191 16.2923C41.4344 16.2923 39.0344 17.8154 39.0344 19.7538C39.0344 21.2308 40.1883 22.2462 41.7575 22.2462V22.7538C39.7729 22.7538 38.3883 21.5077 38.3883 19.7538C38.3883 17.3538 41.2037 15.3231 45.3114 15.3231C48.9114 15.3231 51.7729 17.1231 51.7729 19.9846C51.7729 23.3077 49.3267 25.1077 45.2652 26.3538L45.3114 26.4462C49.3267 25.9385 53.4806 28.2923 53.4806 32.2154C53.4806 36.8308 49.5114 39.6 44.8037 39.6Z" fill="black"/>
</g>
<defs>
<filter id="filter0_d_4_5" x="0.153839" y="0.230774" width="57.3268" height="47.3692" filterUnits="userSpaceOnUse" color-interpolation-filters="sRGB">
<feFlood flood-opacity="0" result="BackgroundImageFix"/>
<feColorMatrix in="SourceAlpha" type="matrix" values="0 0 0 0 0 0 0 0 0 0 0 0 0 0 0 0 0 0 127 0" result="hardAlpha"/>
<feOffset dy="4"/>
<feGaussianBlur stdDeviation="2"/>
<feComposite in2="hardAlpha" operator="out"/>
<feColorMatrix type="matrix" values="0 0 0 0 0 0 0 0 0 0 0 0 0 0 0 0 0 0 0.25 0"/>
<feBlend mode="normal" in2="BackgroundImageFix" result="effect1_dropShadow_4_5"/>
<feBlend mode="normal" in="SourceGraphic" in2="effect1_dropShadow_4_5" result="shape"/>
</filter>
</defs>
</svg>
