<svg width="30" height="30" viewBox="0 0 30 30" fill="none" xmlns="http://www.w3.org/2000/svg">
<g clip-path="url(#clip0_21_33)">
<path d="M6.85125 2.49C6.74056 2.34762 6.60084 2.23041 6.44138 2.14618C6.28191 2.06194 6.10635 2.01259 5.92635 2.00142C5.74634 1.99025 5.56602 2.0175 5.39737 2.08137C5.22871 2.14525 5.07557 2.24427 4.94812 2.37188L3.00937 4.3125C2.10375 5.22 1.77 6.50438 2.16562 7.63125C3.80763 12.2955 6.47868 16.5302 9.98062 20.0213C13.4717 23.5232 17.7064 26.1942 22.3706 27.8363C23.4975 28.2319 24.7819 27.8981 25.6894 26.9925L27.6281 25.0538C27.7557 24.9263 27.8548 24.7732 27.9186 24.6045C27.9825 24.4359 28.0098 24.2555 27.9986 24.0755C27.9874 23.8955 27.9381 23.72 27.8538 23.5605C27.7696 23.401 27.6524 23.2613 27.51 23.1506L23.1844 19.7869C23.0323 19.6689 22.8553 19.587 22.6669 19.5474C22.4786 19.5078 22.2836 19.5114 22.0969 19.5581L17.9906 20.5838C17.4425 20.7207 16.8683 20.7135 16.3238 20.5627C15.7794 20.4118 15.2832 20.1226 14.8837 19.7231L10.2787 15.1163C9.87894 14.7169 9.58936 14.2209 9.43821 13.6764C9.28706 13.132 9.27949 12.5576 9.41625 12.0094L10.4437 7.90313C10.4904 7.71637 10.4941 7.52145 10.4545 7.33306C10.4149 7.14467 10.333 6.96775 10.215 6.81563L6.85125 2.49ZM3.5325 0.958129C3.86061 0.629909 4.2548 0.375248 4.68888 0.211056C5.12297 0.046864 5.58702 -0.0231023 6.05021 0.00580325C6.51341 0.0347088 6.96516 0.161825 7.37546 0.37871C7.78577 0.595596 8.14523 0.897288 8.43 1.26375L11.7937 5.5875C12.4106 6.38063 12.6281 7.41375 12.3844 8.38875L11.3587 12.495C11.3057 12.7077 11.3086 12.9305 11.3671 13.1417C11.4255 13.353 11.5376 13.5455 11.6925 13.7006L16.2994 18.3075C16.4547 18.4627 16.6475 18.575 16.8592 18.6334C17.0708 18.6919 17.2939 18.6946 17.5069 18.6413L21.6112 17.6156C22.0924 17.4953 22.5946 17.486 23.0799 17.5883C23.5652 17.6906 24.0209 17.9019 24.4125 18.2063L28.7362 21.57C30.2906 22.7794 30.4331 25.0763 29.0419 26.4656L27.1031 28.4044C25.7156 29.7919 23.6419 30.4013 21.7087 29.7206C16.761 27.9797 12.2686 25.1472 8.565 21.4331C4.85116 17.73 2.01864 13.2384 0.277498 8.29125C-0.401252 6.36 0.208123 4.28438 1.59562 2.89688L3.53437 0.958129H3.5325Z" fill="black"/>
</g>
<defs>
<clipPath id="clip0_21_33">
<rect width="30" height="30" fill="white"/>
</clipPath>
</defs>
</svg>
