<svg width="1920" height="454" viewBox="0 0 1920 454" fill="none" xmlns="http://www.w3.org/2000/svg">
<path d="M0 134.006C89.7157 52.6141 244.308 26.6359 361.427 46.8044C544.2 78.2787 520.062 287.784 616.84 400.421C706.605 504.896 762.48 215.104 771.784 176.004C781.486 135.233 790.347 37.0613 847.788 31.4158C932.716 23.0688 1023.95 142.584 1076.45 193.637C1099.05 215.608 1151.38 285.364 1189.32 284.686C1212.34 284.275 1212.45 220.018 1216.72 205.82C1234.15 147.805 1289.96 169.943 1330.89 191.072C1397.35 225.391 1471.75 283.093 1550.74 284.366C1625.02 285.562 1560.42 133.217 1651.21 115.091C1696.19 106.112 1744.8 111.247 1790.5 108.038C1833.66 105.008 1876.85 102.209 1920 99.382" stroke="#4171D7" stroke-opacity="0.22" stroke-width="60" stroke-linecap="round"/>
</svg>
